<svg width="32" height="32" viewBox="0 0 32 32" fill="none" xmlns="http://www.w3.org/2000/svg">
<path d="M2.41499 26.57L7.52499 26.435C7.78037 26.4287 8.02368 26.325 8.20499 26.145L24.935 9.44C25.7807 8.59178 26.2557 7.44282 26.2557 6.245C26.2557 5.04718 25.7807 3.89822 24.935 3.05C24.0868 2.20424 22.9378 1.72931 21.74 1.72931C20.5422 1.72931 19.3932 2.20424 18.545 3.05L1.83999 19.755C1.66001 19.9363 1.55625 20.1796 1.54999 20.435L1.41499 25.545C1.41165 25.6784 1.43505 25.8111 1.48381 25.9354C1.53257 26.0596 1.6057 26.1728 1.69889 26.2683C1.79208 26.3638 1.90345 26.4397 2.02644 26.4916C2.14942 26.5434 2.28153 26.57 2.41499 26.57ZM19.96 4.465C22.37 2.18 25.805 5.62 23.52 8.025L22 9.56L18.425 6L19.96 4.465ZM3.53499 20.89L17 7.415L20.57 11L7.09999 24.45L3.44499 24.54L3.53499 20.89Z" fill="black"/>
<path d="M30 28.27H2C1.73478 28.27 1.48043 28.3754 1.29289 28.5629C1.10536 28.7504 1 29.0048 1 29.27C1 29.5352 1.10536 29.7896 1.29289 29.9771C1.48043 30.1647 1.73478 30.27 2 30.27H30C30.2652 30.27 30.5196 30.1647 30.7071 29.9771C30.8946 29.7896 31 29.5352 31 29.27C31 29.0048 30.8946 28.7504 30.7071 28.5629C30.5196 28.3754 30.2652 28.27 30 28.27Z" fill="black"/>
</svg>
