<svg width="34" height="34" viewBox="0 0 34 34" fill="none" xmlns="http://www.w3.org/2000/svg">
<path d="M2.70937 17.7578C4.25 17.7578 5.525 17.5232 6.53437 17.0539C7.54375 16.5846 8.2388 15.8896 8.61953 14.9687C9.00026 14.0479 9.02682 12.919 8.69922 11.582L8.46016 10.5727C8.19453 9.48359 8.13698 8.62474 8.2875 7.99609C8.42917 7.36745 8.73906 6.92031 9.21719 6.65469C9.68646 6.38906 10.3284 6.25625 11.143 6.25625H13.8523V4.31719H10.2664C9.00026 4.31719 7.98646 4.54739 7.225 5.00781C6.45469 5.46823 5.95885 6.14557 5.7375 7.03984C5.51615 7.93411 5.57812 9.01875 5.92344 10.2937L6.18906 11.25C6.4901 12.3833 6.51224 13.3263 6.25547 14.0789C5.9987 14.8227 5.43203 15.3893 4.55547 15.7789C3.67005 16.1685 2.44818 16.3721 0.889843 16.3898V18.8336C2.44818 18.8513 3.67005 19.0549 4.55547 19.4445C5.43203 19.8341 5.9987 20.4052 6.25547 21.1578C6.51224 21.9016 6.4901 22.8401 6.18906 23.9734L5.92344 24.9164C5.57812 26.2003 5.51615 27.2893 5.7375 28.1836C5.95 29.0779 6.44141 29.7552 7.21172 30.2156C7.98203 30.676 9.00026 30.9063 10.2664 30.9063H13.8523V28.9539H11.143C10.3284 28.9539 9.68646 28.8211 9.21719 28.5555C8.73906 28.2987 8.42917 27.856 8.2875 27.2273C8.13698 26.5987 8.19453 25.7398 8.46016 24.6508L8.69922 23.6281C9.01797 22.2911 8.99141 21.1622 8.61953 20.2414C8.2388 19.3206 7.54375 18.6299 6.53437 18.1695C5.525 17.7003 4.25 17.4656 2.70937 17.4656V17.7578Z" fill="black"/>
<path d="M31.2906 17.7578C29.75 17.7578 28.475 17.5232 27.4656 17.0539C26.4563 16.5846 25.7612 15.8896 25.3805 14.9687C24.9997 14.0479 24.9732 12.919 25.3008 11.582L25.5398 10.5727C25.8055 9.48359 25.863 8.62474 25.7125 7.99609C25.5708 7.36745 25.2609 6.92031 24.7828 6.65469C24.3135 6.38906 23.6716 6.25625 22.857 6.25625H20.1477V4.31719H23.7336C24.9997 4.31719 26.0135 4.54739 26.775 5.00781C27.5453 5.46823 28.0411 6.14557 28.2625 7.03984C28.4839 7.93411 28.4219 9.01875 28.0766 10.2937L27.8109 11.25C27.5099 12.3833 27.4878 13.3263 27.7445 14.0789C28.0013 14.8227 28.568 15.3893 29.4445 15.7789C30.3299 16.1685 31.5518 16.3721 33.1102 16.3898V18.8336C31.5518 18.8513 30.3299 19.0549 29.4445 19.4445C28.568 19.8341 28.0013 20.4052 27.7445 21.1578C27.4878 21.9016 27.5099 22.8401 27.8109 23.9734L28.0766 24.9164C28.4219 26.2003 28.4839 27.2893 28.2625 28.1836C28.05 29.0779 27.5586 29.7552 26.7883 30.2156C26.018 30.676 24.9997 30.9063 23.7336 30.9063H20.1477V28.9539H22.857C23.6716 28.9539 24.3135 28.8211 24.7828 28.5555C25.2609 28.2987 25.5708 27.856 25.7125 27.2273C25.863 26.5987 25.8055 25.7398 25.5398 24.6508L25.3008 23.6281C24.982 22.2911 25.0086 21.1622 25.3805 20.2414C25.7612 19.3206 26.4563 18.6299 27.4656 18.1695C28.475 17.7003 29.75 17.4656 31.2906 17.4656V17.7578Z" fill="black"/>
<line x1="17.0068" y1="12.3789" x2="17.0068" y2="10.0938" stroke="black" stroke-width="0.664062"/>
<line x1="15.2617" y1="9.76172" x2="18.582" y2="9.76172" stroke="black" stroke-width="0.664062"/>
<circle cx="16.9668" cy="17.4365" r="6.30859" fill="white" stroke="black" stroke-width="0.332031"/>
<line x1="17" y1="11.0195" x2="17" y2="12.6981" stroke="black" stroke-width="0.332031"/>
<line x1="16.9668" y1="22.0469" x2="16.9668" y2="23.7255" stroke="black" stroke-width="0.332031"/>
<line x1="21.7275" y1="17.2705" x2="23.4061" y2="17.2705" stroke="black" stroke-width="0.332031"/>
<line x1="10.4922" y1="17.2705" x2="12.1708" y2="17.2705" stroke="black" stroke-width="0.332031"/>
<circle cx="16.8257" cy="17.4859" r="0.166016" fill="#0C0C0C" stroke="black" stroke-width="0.147569"/>
</svg>
